<svg xmlns="http://www.w3.org/2000/svg" viewBox="0 0 1200 1200" style="background:#B2E7E8">
  <rect width="1200" height="1200" fill="#B2E7E8"/>
  <rect x="0" y="950" width="1200" height="250" fill="white" opacity="0.6"/>
  <path d="M 300 400 L 320 200 L 350 400" fill="#2E7D32"/>
  <path d="M 900 500 L 920 300 L 950 500" fill="#2E7D32"/>
  <ellipse cx="600" cy="700" rx="160" ry="180" fill="#FFD700" stroke="#DAA520" stroke-width="5"/>
  <circle cx="600" cy="550" r="120" fill="#FFD700" stroke="#DAA520" stroke-width="5"/>
  <circle cx="550" cy="520" r="40" fill="#FFE4B5"/>
  <circle cx="650" cy="520" r="40" fill="#FFE4B5"/>
  <circle cx="550" cy="525" r="18" fill="#333"/>
  <circle cx="650" cy="525" r="18" fill="#333"/>
  <circle cx="553" cy="528" r="8" fill="white"/>
  <circle cx="653" cy="528" r="8" fill="white"/>
  <ellipse cx="600" cy="560" rx="15" ry="12" fill="#8B4513"/>
  <path d="M 585 575 Q 600 585, 615 575" fill="none" stroke="#333" stroke-width="4"/>
  <ellipse cx="500" cy="650" rx="60" ry="100" fill="#FFD700"/>
  <ellipse cx="700" cy="650" rx="60" ry="100" fill="#FFD700"/>
  <ellipse cx="550" cy="870" rx="70" ry="80" fill="#FFD700"/>
  <ellipse cx="650" cy="870" rx="70" ry="80" fill="#FFD700"/>
  <circle cx="540" cy="470" r="8" fill="#FFE4B5"/>
  <circle cx="640" cy="470" r="8" fill="#FFE4B5"/>
</svg>
