<svg xmlns="http://www.w3.org/2000/svg" viewBox="0 0 1200 1200" style="background:#FFF8F0">
  <rect width="1200" height="1200" fill="#FFF8F0"/>
  <ellipse cx="600" cy="980" rx="150" ry="40" fill="#DDD" opacity="0.3"/>
  <circle cx="600" cy="280" r="85" fill="#FFE4B5" stroke="#333" stroke-width="4"/>
  <circle cx="575" cy="270" r="12" fill="#333"/>
  <circle cx="625" cy="270" r="12" fill="#333"/>
  <path d="M 585 300 Q 600 310, 615 300" fill="none" stroke="#333" stroke-width="3"/>
  <path d="M 400 400 L 350 500 L 300 900 L 400 950 L 600 920 L 800 950 L 900 900 L 850 500 L 800 400 Z"
        fill="#B2E7E8" stroke="#7EB6B8" stroke-width="4"/>
  <path d="M 800 400 L 900 500 L 880 700" fill="#FFD966" stroke="#CCA633" stroke-width="4"/>
  <path d="M 400 400 L 300 500 L 320 700" fill="#FFD966" stroke="#CCA633" stroke-width="4"/>
  <rect x="550" y="380" width="100" height="300" fill="#FF6961" stroke="#CC5651" stroke-width="3"/>
  <path d="M 500 650 Q 600 680, 700 650" fill="none" stroke="#8B6914" stroke-width="6"/>
  <ellipse cx="450" cy="950" rx="50" ry="70" fill="#333"/>
  <ellipse cx="750" cy="950" rx="50" ry="70" fill="#333"/>
</svg>
