<svg xmlns="http://www.w3.org/2000/svg" viewBox="0 0 1400 1050" style="background:#FFF8F0">
  <!-- Sky -->
  <rect width="1400" height="1050" fill="#B2E7E8"/>

  <!-- Lanterns -->
  <ellipse cx="200" cy="150" rx="40" ry="50" fill="#FF6961" stroke="#CC5651" stroke-width="3"/>
  <line x1="200" y1="100" x2="200" y2="150" stroke="#8B6914" stroke-width="2"/>
  <ellipse cx="1200" cy="180" rx="40" ry="50" fill="#FFD966" stroke="#CCA633" stroke-width="3"/>
  <line x1="1200" y1="130" x2="1200" y2="180" stroke="#8B6914" stroke-width="2"/>

  <!-- Dragon body -->
  <path d="M 200 500 Q 350 400, 500 500 Q 650 600, 800 500 Q 950 400, 1100 500"
        fill="none" stroke="#FF6961" stroke-width="80" stroke-linecap="round"/>

  <!-- Dragon head -->
  <circle cx="1150" cy="480" r="100" fill="#FFD966" stroke="#CCA633" stroke-width="5"/>
  <circle cx="1120" cy="460" r="20" fill="white" stroke="#333" stroke-width="3"/>
  <circle cx="1180" cy="460" r="20" fill="white" stroke="#333" stroke-width="3"/>
  <circle cx="1125" cy="465" r="10" fill="#333"/>
  <circle cx="1185" cy="465" r="10" fill="#333"/>

  <!-- Dragon horns -->
  <path d="M 1100 420 L 1080 370 L 1110 400" fill="#FF6961"/>
  <path d="M 1200 420 L 1220 370 L 1190 400" fill="#FF6961"/>

  <!-- Confetti -->
  <circle cx="300" cy="200" r="8" fill="#FFD966"/>
  <circle cx="600" cy="250" r="6" fill="#FF6961"/>
  <circle cx="900" cy="220" r="7" fill="#B2E7E8"/>

  <!-- Kids -->
  <circle cx="400" cy="750" r="50" fill="#FFD966" stroke="#333" stroke-width="3"/>
  <circle cx="700" cy="750" r="50" fill="#B2E7E8" stroke="#333" stroke-width="3"/>
  <ellipse cx="400" cy="850" rx="40" ry="80" fill="#FF6961"/>
  <ellipse cx="700" cy="850" rx="40" ry="80" fill="#FFD966"/>
</svg>
