<svg xmlns="http://www.w3.org/2000/svg" viewBox="0 0 1600 900" style="background:#FFD966">
  <defs>
    <radialGradient id="sky" cx="50%" cy="30%">
      <stop offset="0%" style="stop-color:#FFD966"/>
      <stop offset="100%" style="stop-color:#FF6961"/>
    </radialGradient>
  </defs>
  <!-- Sky background -->
  <rect width="1600" height="900" fill="url(#sky)"/>

  <!-- Chinese rooftop -->
  <path d="M 300 400 Q 500 350, 700 400 L 650 450 L 350 450 Z" fill="#B2393F" stroke="#8B2E33" stroke-width="4"/>
  <path d="M 900 400 Q 1100 350, 1300 400 L 1250 450 L 950 450 Z" fill="#B2393F" stroke="#8B2E33" stroke-width="4"/>

  <!-- Fireworks dots -->
  <circle cx="200" cy="150" r="8" fill="#FFD966" opacity="0.8"/>
  <circle cx="250" cy="120" r="6" fill="#B2E7E8" opacity="0.8"/>
  <circle cx="1350" cy="180" r="7" fill="#FFD966" opacity="0.8"/>
  <circle cx="1400" cy="140" r="9" fill="#FF6961" opacity="0.8"/>

  <!-- Panda body -->
  <ellipse cx="800" cy="650" rx="180" ry="200" fill="white" stroke="#333" stroke-width="6"/>

  <!-- Panda head -->
  <circle cx="800" cy="480" r="120" fill="white" stroke="#333" stroke-width="6"/>

  <!-- Ears -->
  <circle cx="730" cy="410" r="45" fill="#333"/>
  <circle cx="870" cy="410" r="45" fill="#333"/>

  <!-- Eye patches -->
  <ellipse cx="760" cy="470" rx="35" ry="45" fill="#333"/>
  <ellipse cx="840" cy="470" rx="35" ry="45" fill="#333"/>

  <!-- Eyes -->
  <circle cx="760" cy="475" r="12" fill="white"/>
  <circle cx="840" cy="475" r="12" fill="white"/>
  <circle cx="763" cy="478" r="8" fill="#333"/>
  <circle cx="843" cy="478" r="8" fill="#333"/>

  <!-- Nose -->
  <ellipse cx="800" cy="510" rx="15" ry="12" fill="#333"/>

  <!-- Smile -->
  <path d="M 780 520 Q 800 535, 820 520" fill="none" stroke="#333" stroke-width="4" stroke-linecap="round"/>

  <!-- Red scarf -->
  <path d="M 720 550 Q 800 580, 880 550 L 870 590 Q 800 610, 730 590 Z" fill="#FF6961" stroke="#CC5651" stroke-width="3"/>

  <!-- Arms -->
  <ellipse cx="650" cy="600" rx="60" ry="80" fill="#333"/>
  <ellipse cx="950" cy="600" rx="60" ry="80" fill="#333"/>

  <!-- Lantern in paw -->
  <rect x="920" y="550" width="80" height="100" rx="10" fill="#FF6961" stroke="#CC5651" stroke-width="3"/>
  <rect x="935" y="560" width="50" height="30" fill="#FFD966" opacity="0.7"/>
  <line x1="960" y1="550" x2="960" y2="520" stroke="#8B6914" stroke-width="3"/>
  <circle cx="960" cy="515" r="5" fill="#8B6914"/>

  <!-- Legs -->
  <ellipse cx="750" cy="820" rx="70" ry="60" fill="#333"/>
  <ellipse cx="850" cy="820" rx="70" ry="60" fill="#333"/>
</svg>
